<svg viewBox="0 0 1280 950" xmlns="http://www.w3.org/2000/svg" font-family="&#39;Inter&#39;, system-ui, -apple-system, sans-serif">
  <defs>
    
  </defs>

  <rect class="ground" x="0" y="0" width="1280" height="950"></rect>

  
  <text class="eyebrow" x="48" y="46">TRAVELWELL.WORLD</text>
  <text class="title" x="48" y="84" font-size="34">Sitemap &amp; Information Architecture</text>
  <text class="stone" x="48" y="110" font-size="13">Every surface is locale-prefixed (/[locale]/…). The top nav stays minimal; the full IA lives in the “Worlds of Adventure” mega-menu + footer.</text>

  
  <g>
    <rect class="home" x="540" y="140" width="200" height="54" rx="27"></rect>
    <text class="white" x="640" y="166" text-anchor="middle" font-size="15" font-weight="600">Home</text>
    <text class="white" x="640" y="183" text-anchor="middle" font-size="11" opacity="0.85">/[locale]</text>
  </g>

  
  <g>
    <rect class="band" x="48" y="214" width="1184" height="46" rx="12"></rect>
    <text class="eyebrow" x="68" y="234">GLOBAL SHELL · PERSISTENT ON EVERY ROUTE</text>
    <text class="stone" x="68" y="250" font-size="12">Top nav + “Worlds of Adventure” mega-menu · Footer (signature + version) · “Your Trip” tray · Emergency · Locale switcher (RTL for AR) · Skip-to-content</text>
  </g>

  
  <path class="conn" d="M640 194 L640 214"></path>
  <path class="conn" d="M640 260 L640 286 M232 286 L232 300 M640 286 L640 300 M1048 286 L1048 300 M232 286 L1048 286"></path>
  <path class="conn" d="M232 580 L232 600 M640 580 L640 600 M1048 580 L1048 600 M232 595 L1048 595"></path>
  <path class="conn" d="M640 286 L640 595" opacity="0"></path>
  <path class="conn" d="M232 286 L232 286"></path>
  <path class="conn" d="M640 286 L640 286"></path>
  <path class="conn" d="M232 580 L232 595 M640 580 L640 595 M1048 580 L1048 595"></path>
  <path class="conn" d="M640 595 L640 600"></path>

  
  
  <g>
    <rect class="card" x="48" y="300" width="368" height="262" rx="14"></rect>
    <rect class="accent" x="48" y="300" width="5" height="262" rx="2.5"></rect>
    <text class="grouphd" x="74" y="332">Explore</text>
    <text class="ink" x="74" y="362">Special Interests <tspan class="stone">/si</tspan></text>
    <text class="stone" x="90" y="382">↳ SI detail /si/[slug]</text>
    <text class="stone" x="90" y="400">↳ SI × Region /si/[slug]/[region]</text>
    <text class="ink" x="74" y="426">Destinations <tspan class="stone">/destinations</tspan></text>
    <text class="stone" x="90" y="446">↳ Destination /destinations/[slug]</text>
    <text class="ink" x="74" y="472">Regions <tspan class="stone">/regions</tspan></text>
    <text class="stone" x="90" y="492">↳ Region /regions/[id]  ·  11 regions</text>
    <text class="ink" x="74" y="518">Guides <tspan class="stone">/guides</tspan></text>
    <text class="stone" x="90" y="538">↳ /guides/[slug] · /morocco (Top 8)</text>
  </g>

  
  <g>
    <rect class="card" x="456" y="300" width="368" height="262" rx="14"></rect>
    <rect class="home" x="456" y="300" width="5" height="262" rx="2.5"></rect>
    <text class="grouphd" x="482" y="332">The System</text>
    <text class="ink" x="482" y="362">Wells <tspan class="stone">/wells</tspan></text>
    <text class="stone" x="498" y="382">↳ Well detail /wells/[type]  ·  10 base</text>
    <text class="stone" x="498" y="400">↳ Ship-Well = pre-launch (soon)</text>
    <text class="stone" x="498" y="418">↳ +Nanny / Security on Luxury &amp; Ultra</text>
    <text class="ink" x="482" y="448">Providers <tspan class="stone">/providers</tspan></text>
    <text class="stone" x="498" y="468">↳ filter by well / si / region · FTC + /go</text>
    <text class="ink" x="482" y="498">About / Architecture</text>
    <text class="stone" x="498" y="518">↳ /about/architecture  ·  OS-layer proof</text>
  </g>

  
  <g>
    <rect class="card" x="864" y="300" width="368" height="262" rx="14"></rect>
    <rect class="accent" x="864" y="300" width="5" height="262" rx="2.5"></rect>
    <text class="grouphd" x="890" y="332">Plan</text>
    <text class="ink" x="890" y="362">Plan Your Trip <tspan class="stone">/plan</tspan></text>
    <text class="stone" x="906" y="382">↳ seasonal banner · 10-Well checklist</text>
    <text class="ink" x="890" y="412">Travel ID <tspan class="stone">/travel-id</tspan></text>
    <text class="stone" x="906" y="432">↳ 6-step wizard → Identity Card</text>
    <text class="stone" x="906" y="450">↳ Profile /profile · edit / reset</text>
    <text class="ink" x="890" y="480">Itinerary <tspan class="stone">/itinerary</tspan></text>
    <text class="stone" x="906" y="500">↳ /itinerary/[id] · 6 time blocks</text>
    <text class="stone" x="906" y="518">↳ AI Sync (AI/rules) · Well-gap</text>
  </g>

  
  
  <g>
    <rect class="card" x="48" y="600" width="368" height="222" rx="14"></rect>
    <rect class="accent" x="48" y="600" width="5" height="222" rx="2.5"></rect>
    <text class="grouphd" x="74" y="632">Experiences &amp; Commerce</text>
    <text class="ink" x="74" y="662">Ultra-Luxury universe <tspan class="stone">/ultra</tspan></text>
    <text class="stone" x="90" y="682">↳ service tiers · concierge path</text>
    <text class="ink" x="74" y="708">First Aid Kit <tspan class="stone">/kit</tspan></text>
    <text class="stone" x="90" y="728">↳ $189 · email pre-order → checkout (future)</text>
    <text class="ink" x="74" y="754">Events</text>
    <text class="stone" x="90" y="774">↳ /race-for-the-conch</text>
    <text class="stone" x="90" y="792">↳ /founders-grand-tour</text>
  </g>

  
  <g>
    <rect class="card" x="456" y="600" width="368" height="222" rx="14"></rect>
    <rect class="home" x="456" y="600" width="5" height="222" rx="2.5"></rect>
    <text class="grouphd" x="482" y="632">Investor &amp; Partner</text>
    <text class="ink" x="482" y="662">Public Demo <tspan class="stone">/demo</tspan></text>
    <text class="stone" x="498" y="682">↳ live stats · revenue architecture</text>
    <text class="ink" x="482" y="712">VC Demo <tspan class="stone">/vc-demo</tspan>  <tspan class="tag" fill="#A8873F">GATED</tspan></text>
    <text class="stone" x="498" y="732">↳ worked Paris itinerary · real commissions</text>
    <text class="ink" x="482" y="762">VC Demo · Ultra <tspan class="stone">/vc-demo/ultra</tspan>  <tspan class="tag" fill="#A8873F">GATED</tspan></text>
    <text class="stone" x="498" y="782">↳ luxury economics · all figures auditable</text>
  </g>

  
  <g>
    <rect class="card" x="864" y="600" width="368" height="222" rx="14"></rect>
    <rect class="accent" x="864" y="600" width="5" height="222" rx="2.5"></rect>
    <text class="grouphd" x="890" y="632">Utility</text>
    <text class="ink" x="890" y="662">Affiliate redirect <tspan class="stone">/go</tspan></text>
    <text class="stone" x="906" y="682">↳ invisible tracked hop → partner</text>
    <text class="stone" x="906" y="700">↳ disclosure shown at source, not here</text>
    <text class="ink" x="890" y="730">Email verify <tspan class="stone">/verify-email</tspan></text>
    <text class="stone" x="906" y="750">↳ stub today · “magic link coming soon”</text>
    <text class="stone" x="906" y="768">↳ degrade gracefully (NFR-3)</text>
  </g>

  
  <g>
    <rect class="band" x="48" y="858" width="1184" height="56" rx="12"></rect>
    <text class="eyebrow" x="68" y="884">LEGEND</text>
    <rect x="68" y="896" width="14" height="14" rx="3" fill="#2C6E68"></rect>
    <text class="ink" x="88" y="907" font-weight="400" font-size="12.5">OS / system spine</text>
    <rect x="232" y="896" width="14" height="14" rx="3" fill="#C2A35B"></rect>
    <text class="ink" x="252" y="907" font-weight="400" font-size="12.5">traveler explore &amp; plan</text>
    <text class="ink" x="430" y="907" font-weight="400" font-size="12.5"><tspan fill="#A8873F" font-weight="600">GATED</tspan> = password-protected  ·  (soon) = pre-launch / stub state  ·  all routes are /[locale]/-prefixed</text>
  </g>
</svg>